<svg width="160" height="39" viewBox="0 0 160 39" fill="none" xmlns="http://www.w3.org/2000/svg">
<path d="M46.0825 13.7157C46.0825 13.7499 46.0787 13.7842 46.0749 13.8184C45.8618 18.9242 44.6747 23.3833 42.2284 27.0053C39.7592 30.6615 36.0306 33.4427 30.7536 35.151C30.7383 35.1548 30.7231 35.1586 30.7117 35.1624V37.6963C30.7117 37.8903 30.5519 38.0539 30.3541 38.0539H14.679C14.4279 38.0539 14.2224 37.8485 14.2224 37.5974V35.1472C14.173 35.1282 14.1273 35.1053 14.0817 35.0787C9.24217 32.7883 5.82942 29.7788 3.56947 26.1759C1.29811 22.5577 0.202371 18.3688 0.000725047 13.7499C-0.0182981 13.2896 0.339337 12.8977 0.799699 12.8787C0.811113 12.8787 0.822527 12.8787 0.833941 12.8787C0.833941 12.8787 1.30191 12.8787 2.14273 12.8787L45.8808 13.1792H45.896C45.8922 13.183 46.0825 13.4988 46.0825 13.7157Z" fill="#7C7D7E"/>
<path d="M2.14273 12.8787C1.97532 12.6961 1.83836 12.4906 1.73183 12.2585L2.18838 12.1406C1.68617 11.5623 1.20679 10.9688 1.01275 10.204L1.47692 10.0785C1.06982 9.38222 0.77306 8.72402 0.704577 8.14191L1.2182 8.2142C0.845348 7.3087 0.636094 6.49831 0.655117 5.81728L1.17635 5.96186C0.849153 5.1705 0.746428 4.2726 0.78067 3.43559C1.52638 3.6829 2.26448 4.06715 2.99497 4.6797L3.06345 4.15466C3.62653 4.34489 4.31898 4.82808 5.10273 5.51291L5.19785 5.01451C5.74191 5.34551 6.25934 5.80967 6.74633 6.43363L7.01646 6.05697C7.50345 6.43744 7.96762 7.03096 8.41657 7.84515L8.70191 7.44947C9.08618 7.89842 9.36772 8.50716 9.49328 9.34037L9.85852 9.08927C9.99549 9.37461 10.0868 9.75127 10.1096 10.2611C10.4901 10.6301 10.9771 10.9269 11.5364 11.159V13.0118C11.0532 13.0118 -3.92186 12.8787 2.14273 12.8787ZM6.33543 12.8749H6.86047C6.50284 12.4031 6.15281 11.9275 5.81039 11.4481C4.60432 9.75888 3.5162 8.0468 2.527 6.22438C2.23404 5.68412 1.9525 5.14006 1.68237 4.58839C1.64432 4.90037 2.39383 6.53636 2.94931 7.57502C3.94612 9.42788 5.11034 11.1742 6.33543 12.8749Z" fill="#078407"/>
<path d="M30.8335 0.928328C32.0129 0.391875 33.3217 0.0913086 34.7028 0.0913086C36.3426 0.0913086 37.8834 0.513623 39.2227 1.25933C39.2227 1.4001 39.2265 1.53707 39.2379 1.66643C39.2417 1.7273 39.2493 1.79198 39.257 1.84905C39.1086 1.79959 38.9564 1.7235 38.77 1.62838V1.62458L38.7624 1.62077C38.4009 1.43434 37.9557 1.57892 37.7693 1.94416C37.7236 2.03548 37.697 2.1344 37.6894 2.22951C37.6818 2.33604 37.6628 2.46159 37.6437 2.59095C37.6095 2.81542 37.5791 3.0437 37.56 3.26818C37.4802 3.22252 37.4079 3.17306 37.3318 3.10838C37.0274 2.83825 36.5594 2.86869 36.2893 3.17306C36.2018 3.27579 36.1447 3.39373 36.1181 3.51548C35.9963 3.97965 35.9735 4.42859 36.0078 4.85852C35.7833 4.73296 35.5664 4.58458 35.361 4.44001C35.03 4.20412 34.5696 4.28402 34.3375 4.61502C34.2652 4.72155 34.2196 4.83569 34.2082 4.95744H34.2044C34.1891 5.07158 34.1815 5.19332 34.1777 5.31127C34.0788 5.29224 33.9723 5.27322 33.8696 5.258C33.8924 5.14386 33.9152 5.02972 33.9304 4.91178C33.9989 4.44381 34.0027 3.95301 33.8886 3.43558H33.8848C33.8619 3.32905 33.8163 3.23013 33.744 3.13882C33.4967 2.81543 33.0363 2.76216 32.7167 3.01327C32.6254 3.08555 32.5303 3.14262 32.4314 3.18828C32.4276 2.94098 32.4048 2.69368 32.3819 2.44638C32.3705 2.32843 32.3591 2.21429 32.3515 2.06972C32.3515 1.9708 32.3325 1.87188 32.2906 1.77676C32.127 1.40391 31.6895 1.2365 31.3166 1.4001L31.309 1.40391H31.3052C31.0922 1.49902 30.921 1.57512 30.7498 1.61697C30.765 1.54087 30.7764 1.46859 30.7878 1.38869C30.8144 1.24411 30.8258 1.08812 30.8335 0.928328Z" fill="#8FBA39"/>
<path d="M40.8054 13.1108L42.0876 13.1298C41.0679 12.1862 40.2233 11.0981 39.5271 9.88824C39.7477 11.0715 40.1282 12.171 40.8054 13.1108Z" fill="#078407"/>
<path d="M38.1764 13.0765L38.9868 13.0879C38.0509 11.4405 36.1523 10.7405 34.8055 9.38222C34.6571 9.23003 34.5125 9.07785 34.3756 8.91425C34.3071 8.93327 34.2386 8.9561 34.1663 8.97512C33.3902 9.18818 35.1213 10.3866 36.9932 11.9808C37.4193 12.3422 37.8264 12.7037 38.1764 13.0765Z" fill="#078407"/>
<path d="M27.4017 12.9281L28.6953 12.9472C29.3649 12.0493 29.7834 11.003 30.0611 9.86922C29.3116 11.0144 28.4365 12.0417 27.4017 12.9281Z" fill="#078407"/>
<path d="M24.5748 12.8863L26.968 12.9205L26.2869 10.7823C27.531 9.99476 28.448 8.70499 29.0605 6.95486C28.155 8.20278 27.1544 9.23764 26.1804 9.49255C24.8754 -0.114145 25.4575 11.6878 25.7923 12.8292C24.9933 12.2852 24.2971 11.5318 23.7074 10.5655C23.852 11.4177 24.1069 12.2091 24.5748 12.8863Z" fill="#078407"/>
<path d="M22.6459 9.1159C22.9084 6.50592 24.4112 3.87692 27.2951 2.02026C28.2311 1.41913 29.2089 0.82941 30.0725 0C30.16 0.958767 30.0801 1.7273 29.7453 2.2181C30.5405 2.55291 30.9362 2.37409 31.621 2.06972C31.6629 2.78119 31.8303 3.56114 31.5031 4.13563C32.1575 4.03671 32.6369 4.01389 33.1771 3.58777C33.3635 4.4324 33.1657 5.20474 32.9298 5.9124C33.7744 5.93142 34.4593 6.076 34.9691 6.30047C34.912 5.87816 34.9044 5.43682 34.9501 5.03353C35.536 5.44823 36.2208 5.88957 36.9703 5.9162C36.7763 5.21995 36.6279 4.46283 36.8524 3.65625C37.3546 4.09759 37.8188 4.14705 38.4428 4.27641C38.1574 3.70191 38.3591 2.96 38.4352 2.27517C39.0819 2.60617 39.4548 2.80021 40.2424 2.51867C39.9456 2.03167 39.9037 1.28216 40.0407 0.357635C40.8321 1.20607 41.749 1.82622 42.6202 2.45779C44.8345 4.05954 46.4439 6.10643 46.7178 8.92947C46.8624 10.4133 46.5542 11.8628 45.8922 13.1526H44.6291C45.1465 12.5134 45.4433 11.7373 45.6335 10.8965C45.0096 11.7982 44.3019 12.4906 43.4991 12.9738C43.8834 11.8895 45.0666 0.509821 43.3013 9.72844C42.3691 9.43168 41.4598 8.3778 40.6494 7.12608C41.1517 8.85338 41.9697 10.1431 43.1301 10.9726L42.3083 13.1336L43.9024 13.1526H23.3802C23.0187 12.2167 22.6459 11.2161 22.6459 10.2078V9.1159Z" fill="#078407"/>
<path d="M42.0876 13.1298C41.0679 12.1862 40.2233 11.0981 39.5271 9.88824C39.7477 11.0715 40.1282 12.2129 40.8054 13.1526L42.0876 13.1298Z" fill="#8FBA39" stroke="#8FBA39" stroke-width="0.216" stroke-miterlimit="2.6131"/>
<path d="M38.1764 13.0765L38.9868 13.0879C38.0509 11.4405 36.1523 10.7405 34.8055 9.38222C34.6571 9.23003 34.5125 9.07785 34.3756 8.91425C34.3071 8.93327 34.2386 8.9561 34.1663 8.97512C33.3902 9.18818 35.1213 10.3866 36.9932 11.9808C37.4193 12.3422 37.8264 12.7037 38.1764 13.0765Z" fill="#8FBA39"/>
<path d="M27.4017 12.9281L28.6953 12.9472C29.3649 12.0493 29.7834 11.003 30.0611 9.86922C29.3116 11.0144 28.4365 12.0417 27.4017 12.9281Z" fill="#8FBA39"/>
<path d="M24.5748 12.8863L26.968 12.9205L26.2869 10.7823C27.531 9.99476 28.448 8.70499 29.0605 6.95486C28.155 8.20278 27.1544 9.23764 26.1804 9.49255C24.8754 -0.114145 25.4575 11.6878 25.7923 12.8292C24.9933 12.2852 24.2971 11.5318 23.7074 10.5655C23.852 11.4177 24.1069 12.2091 24.5748 12.8863Z" fill="#8FBA39"/>
<path fill-rule="evenodd" clip-rule="evenodd" d="M16.3378 5.97706C16.5585 6.94344 16.7715 7.84133 16.9504 8.33213C17.4906 8.3055 17.8406 8.16092 18.2097 8.02396C18.6624 7.85655 19.0391 7.64349 19.3701 7.39619C19.6212 7.23259 19.762 7.30869 19.743 7.731C19.6669 8.12668 19.4614 8.43105 19.1494 8.65933C19.1647 8.65933 19.1837 8.65933 19.1989 8.65933C19.138 8.66314 19.0771 8.67074 19.0163 8.67835C19.7962 8.90663 20.3669 9.38221 20.5648 10.2839C20.58 10.7367 20.4582 10.9459 20.268 10.6872C19.2674 9.89203 18.3809 9.46972 17.5287 9.68658C17.814 10.3714 18.4151 10.8432 19.0353 11.353C17.9167 11.3682 16.8971 10.9345 15.9954 10.0708C14.9872 10.5655 13.5186 10.4285 12.9631 11.2008C12.6397 11.5965 12.575 11.3949 12.6625 10.8546C12.8984 9.99095 13.3017 9.43548 13.8876 9.21481C13.024 9.24905 12.4076 9.0474 12.031 8.83434C12.4723 8.67074 13.0126 8.65172 13.6213 8.58324L12.7196 8.21799C12.5598 8.11527 12.6283 8.05059 12.887 8.02776C14.0436 7.98211 15.0595 8.03918 15.8242 8.26745C15.8128 7.62067 15.5388 6.97768 15.2231 6.3309L16.0525 5.79064L16.3378 5.97706Z" fill="#75AA00"/>
<path fill-rule="evenodd" clip-rule="evenodd" d="M18.9212 8.65554C19.6745 8.87621 20.2223 9.33657 20.4164 10.204C20.4316 10.6416 20.3707 10.8128 20.1843 10.5617C19.2179 9.79693 18.3086 9.41647 17.4868 9.62192C17.7645 10.2839 18.3124 10.8014 18.9135 11.2921C17.8368 11.3074 16.8819 10.828 16.0106 9.99477C15.0366 10.4703 13.6213 10.341 13.0849 11.0867C12.7729 11.471 12.712 11.2769 12.7957 10.7519C13.024 9.91868 13.4121 9.38222 13.9789 9.17297C13.0468 9.20721 12.4343 9.08166 12.0804 8.81914C11.6048 8.97893 11.2358 9.19199 10.9809 9.46212C10.9733 9.46973 10.9695 9.47353 10.9619 9.48114C10.6042 9.79312 10.3227 10.1508 10.121 10.5464C9.90418 10.9611 9.77102 11.4139 9.71395 11.8895C9.66829 12.2547 9.66068 12.6314 9.68732 13.0118H23.1024C23.1024 12.4183 23.0187 11.7868 22.8437 11.1285C22.7676 10.8736 22.6801 10.6416 22.5774 10.4285C22.4747 10.2154 22.3643 10.0214 22.2388 9.85019C21.8469 9.30994 21.3409 8.9561 20.7284 8.77348C20.1995 8.61369 19.5946 8.57945 18.9212 8.65554Z" fill="#F23329"/>
<path fill-rule="evenodd" clip-rule="evenodd" d="M13.724 9.29471C13.8039 9.24525 13.8876 9.2034 13.9789 9.17296C13.8952 9.17676 13.8153 9.17677 13.7354 9.17677C13.7316 9.22242 13.7278 9.26047 13.724 9.29471ZM10.7602 9.66756C10.4977 9.93389 10.2808 10.2268 10.1172 10.5464C9.90037 10.9611 9.76721 11.4139 9.71014 11.8895C9.66449 12.2547 9.65688 12.6314 9.68351 13.0118H10.6651C10.4597 12.0417 10.4673 10.9307 10.7602 9.66756Z" fill="#D61D1D" stroke="#F60D11" stroke-width="0.216" stroke-miterlimit="2.6131"/>
<path fill-rule="evenodd" clip-rule="evenodd" d="M21.5045 13.008C21.4969 12.8863 21.4855 12.7684 21.4665 12.658C21.3904 12.1254 21.2192 11.6688 20.9757 11.2655C20.911 11.159 20.9452 11.0182 21.0517 10.9497C21.1583 10.8851 21.299 10.9193 21.3675 11.0258C21.6415 11.4786 21.8317 11.9922 21.9192 12.5895C21.9382 12.7265 21.9534 12.8635 21.9611 13.008H21.5045Z" fill="#D61D1D"/>
<path d="M4.11352 25.3389C6.28977 28.9266 9.596 31.9437 14.2833 34.2607H30.7231C35.7795 32.541 39.3406 29.7865 41.6919 26.1873C43.929 22.7555 45.0856 18.54 45.3824 13.7043H0.696968C0.989925 18.0264 2.05903 21.9489 4.11352 25.3389Z" fill="#CACACA"/>
<path d="M37.4003 19.6395C37.4992 19.3085 37.8454 19.1183 38.1765 19.2134C38.5075 19.3123 38.6977 19.6585 38.6026 19.9895C38.3439 20.8684 38.0318 21.7473 37.6666 22.6109C37.3052 23.4632 36.8981 24.2926 36.4491 25.0839C36.2779 25.3845 35.8974 25.491 35.5969 25.3198C35.2963 25.1486 35.1898 24.7681 35.361 24.4676C35.7909 23.7143 36.179 22.9305 36.5138 22.1277C36.8562 21.3173 37.153 20.4841 37.4003 19.6395ZM34.5734 25.7345C34.7675 25.4454 35.1555 25.3693 35.4409 25.5633C35.73 25.7574 35.8061 26.1454 35.6121 26.4308C35.2925 26.9064 34.9577 27.3591 34.6115 27.789C34.2691 28.2151 33.9076 28.6184 33.5348 28.9989C33.2913 29.2462 32.8956 29.25 32.6483 29.0065C32.401 28.763 32.3972 28.3673 32.6407 28.12C32.9831 27.77 33.3179 27.3972 33.6337 27.0015C33.9647 26.5982 34.2767 26.1721 34.5734 25.7345Z" fill="#7C7D7E"/>
<path d="M44.6748 13.1526L42.3159 13.1488L43.073 10.965C41.8707 10.1165 41.1364 8.84577 40.6114 7.06901C41.4522 8.35878 42.2854 9.37842 43.2442 9.68279C45.0857 0.35765 43.9138 11.9427 43.4991 12.9738C44.3247 12.4716 45.0248 11.8134 45.6602 10.8774C45.4699 11.7221 45.177 12.4982 44.6748 13.1526Z" fill="#8FBA39"/>
<path d="M51.5056 15.1196V6.05242C51.5056 5.92458 51.5512 5.81501 51.6426 5.7237C51.7339 5.63238 51.848 5.58673 51.985 5.58673H54.5873C56.6875 5.58673 57.7376 6.5181 57.7376 8.38085C57.7376 9.157 57.5641 9.76878 57.2171 10.2162C56.8701 10.6545 56.3999 10.9467 55.8063 11.0928L57.7239 14.695C57.7604 14.7589 57.7787 14.8274 57.7787 14.9005C57.7787 15.0831 57.6828 15.252 57.491 15.4072C57.3084 15.5625 57.1121 15.6401 56.9021 15.6401C56.6647 15.6401 56.4729 15.4986 56.3268 15.2155L54.3271 11.2982H52.9437V15.1196C52.9437 15.2657 52.8707 15.3844 52.7246 15.4757C52.5876 15.5579 52.4187 15.599 52.2178 15.599C52.0261 15.599 51.8571 15.5579 51.711 15.4757C51.5741 15.3844 51.5056 15.2657 51.5056 15.1196ZM52.9437 10.134H54.5873C55.7196 10.134 56.2857 9.59072 56.2857 8.50412C56.2857 7.41752 55.7196 6.87422 54.5873 6.87422H52.9437V10.134ZM58.5719 12.9829V11.6817C58.5719 10.9604 58.8504 10.3395 59.4074 9.819C59.9644 9.2894 60.6356 9.02459 61.4208 9.02459C62.1696 9.02459 62.8088 9.26657 63.3384 9.75052C63.8771 10.2253 64.1465 10.828 64.1465 11.5585C64.1465 11.8324 64.1145 12.0561 64.0506 12.2296C63.9867 12.394 63.8862 12.5127 63.7493 12.5857C63.6123 12.6496 63.4845 12.6907 63.3658 12.709C63.2471 12.7273 63.0918 12.7364 62.9001 12.7364H60.0101V13.0514C60.0101 13.508 60.1744 13.8732 60.5032 14.1472C60.8319 14.412 61.261 14.5444 61.7906 14.5444C62.165 14.5444 62.5166 14.4576 62.8453 14.2841C63.1831 14.1106 63.3886 14.0239 63.4616 14.0239C63.6169 14.0239 63.7493 14.0969 63.8588 14.243C63.9684 14.3891 64.0232 14.5307 64.0232 14.6676C64.0232 14.8959 63.8041 15.1287 63.3658 15.3662C62.9275 15.5944 62.3887 15.7086 61.7496 15.7086C60.8182 15.7086 60.0557 15.4575 59.4622 14.9553C58.8687 14.453 58.5719 13.7956 58.5719 12.9829ZM60.0101 11.8461H62.2837C62.4846 11.8461 62.617 11.8187 62.6809 11.7639C62.754 11.7091 62.7905 11.5996 62.7905 11.4352C62.7905 11.07 62.6581 10.7595 62.3933 10.5038C62.1285 10.2482 61.7998 10.1203 61.4071 10.1203C61.0236 10.1203 60.6949 10.2436 60.421 10.4901C60.147 10.7275 60.0101 11.0334 60.0101 11.4078V11.8461ZM64.9222 14.6128C64.9222 14.4759 64.9679 14.3343 65.0592 14.1882C65.1596 14.0421 65.2784 13.9691 65.4153 13.9691C65.4975 13.9691 65.6116 14.0239 65.7577 14.1335C65.9038 14.2339 66.1002 14.3389 66.3467 14.4485C66.5932 14.5489 66.89 14.5991 67.237 14.5991C68.0131 14.5991 68.4012 14.3526 68.4012 13.8595C68.4012 13.5947 68.2871 13.3893 68.0588 13.2432C67.8305 13.0879 67.552 12.9692 67.2233 12.8871C66.9037 12.7957 66.5841 12.6953 66.2645 12.5857C65.9449 12.4762 65.671 12.289 65.4427 12.0242C65.2144 11.7594 65.1003 11.4169 65.1003 10.9969C65.1003 10.4582 65.292 9.99706 65.6756 9.61355C66.0591 9.22091 66.648 9.02459 67.4424 9.02459C67.9629 9.02459 68.4332 9.10677 68.8532 9.27113C69.2823 9.42636 69.4969 9.61355 69.4969 9.8327C69.4969 9.96053 69.4421 10.1112 69.3326 10.2847C69.2321 10.449 69.1043 10.5312 68.9491 10.5312C68.8943 10.5312 68.7071 10.4673 68.3875 10.3395C68.0679 10.2025 67.762 10.134 67.4698 10.134C67.1046 10.134 66.8261 10.2162 66.6343 10.3806C66.4517 10.5449 66.3604 10.7275 66.3604 10.9284C66.3604 11.1476 66.4745 11.3211 66.7028 11.4489C66.9311 11.5767 67.2096 11.6817 67.5383 11.7639C67.867 11.8461 68.1912 11.9466 68.5108 12.0653C68.8395 12.184 69.118 12.3894 69.3463 12.6816C69.5745 12.9738 69.6887 13.3482 69.6887 13.8047C69.6887 14.3983 69.4787 14.8639 69.0586 15.2018C68.6386 15.5396 68.0451 15.7086 67.2781 15.7086C66.6298 15.7086 66.0728 15.5944 65.6071 15.3662C65.1505 15.1379 64.9222 14.8868 64.9222 14.6128ZM70.8297 13.4623V6.60028C70.8297 6.47245 70.9027 6.36287 71.0488 6.27156C71.1949 6.18025 71.3593 6.1346 71.5419 6.1346C71.7245 6.1346 71.8889 6.18025 72.035 6.27156C72.1902 6.36287 72.2678 6.47245 72.2678 6.60028V9.10678H73.9388C74.0575 9.10678 74.1534 9.16156 74.2265 9.27113C74.2995 9.37158 74.336 9.49485 74.336 9.64094C74.336 9.78704 74.2995 9.91488 74.2265 10.0245C74.1534 10.1249 74.0575 10.1751 73.9388 10.1751H72.2678V13.4623C72.2678 13.791 72.3363 14.0239 72.4733 14.1608C72.6194 14.2978 72.8705 14.3663 73.2266 14.3663H73.706C73.8977 14.3663 74.0484 14.4257 74.158 14.5444C74.2676 14.6631 74.3223 14.8092 74.3223 14.9826C74.3223 15.1561 74.2676 15.3022 74.158 15.4209C74.0484 15.5396 73.8977 15.599 73.706 15.599H73.2266C71.6287 15.599 70.8297 14.8868 70.8297 13.4623ZM74.9398 13.9006C74.9398 13.1701 75.2138 12.6633 75.7616 12.3803C76.3095 12.0881 77.1039 11.942 78.1449 11.942H78.7475V11.6954C78.7475 11.2937 78.6334 10.9467 78.4051 10.6545C78.1859 10.3623 77.8481 10.2162 77.3915 10.2162C76.9989 10.2162 76.6519 10.2847 76.3506 10.4217C76.0584 10.5586 75.8986 10.6271 75.8712 10.6271C75.716 10.6271 75.5881 10.5541 75.4877 10.408C75.3964 10.2527 75.3507 10.0838 75.3507 9.90118C75.3507 9.66377 75.5699 9.45832 76.0082 9.28483C76.4556 9.11134 76.9258 9.02459 77.4189 9.02459C78.3594 9.02459 79.0534 9.28027 79.5008 9.79161C79.9574 10.2938 80.1857 10.9239 80.1857 11.6817V15.1196C80.1857 15.2475 80.1172 15.3616 79.9802 15.462C79.8524 15.5533 79.688 15.599 79.4871 15.599C79.3045 15.599 79.1493 15.5533 79.0214 15.462C78.8936 15.3616 78.8297 15.2475 78.8297 15.1196V14.6402C78.2179 15.3525 77.5285 15.7086 76.7615 15.7086C76.2319 15.7086 75.7936 15.5533 75.4466 15.2429C75.1088 14.9324 74.9398 14.485 74.9398 13.9006ZM76.3917 13.7226C76.3917 14.0148 76.4739 14.2385 76.6382 14.3937C76.8026 14.5398 77.0172 14.6128 77.282 14.6128C77.629 14.6128 77.9577 14.4667 78.2681 14.1745C78.5877 13.8823 78.7475 13.5719 78.7475 13.2432V12.7364H78.4051C77.9942 12.7364 77.6563 12.7547 77.3915 12.7912C77.1359 12.8277 76.903 12.9236 76.693 13.0788C76.4921 13.234 76.3917 13.4486 76.3917 13.7226ZM81.596 13.0103V9.58616C81.596 9.45832 81.6691 9.34875 81.8152 9.25744C81.9613 9.157 82.1302 9.10678 82.322 9.10678C82.5137 9.10678 82.6781 9.157 82.815 9.25744C82.9611 9.34875 83.0342 9.45832 83.0342 9.58616V13.0103C83.0342 13.3756 83.1712 13.7043 83.4451 13.9965C83.7282 14.2887 84.0569 14.4348 84.4313 14.4348C84.8148 14.4348 85.1435 14.2933 85.4174 14.0102C85.6913 13.718 85.8283 13.3847 85.8283 13.0103V9.57246C85.8283 9.44463 85.8968 9.33505 86.0338 9.24374C86.1799 9.15243 86.3533 9.10678 86.5542 9.10678C86.7551 9.10678 86.9195 9.15243 87.0473 9.24374C87.1843 9.33505 87.2528 9.44463 87.2528 9.57246V13.0103C87.2528 13.7317 86.9743 14.3617 86.4173 14.9005C85.8603 15.4392 85.1983 15.7086 84.4313 15.7086C83.6642 15.7086 82.9977 15.4392 82.4315 14.9005C81.8745 14.3617 81.596 13.7317 81.596 13.0103ZM88.6997 15.1196V9.57246C88.6997 9.43549 88.7636 9.32592 88.8914 9.24374C89.0284 9.15243 89.1973 9.10678 89.3982 9.10678C89.5808 9.10678 89.736 9.15243 89.8639 9.24374C89.9917 9.32592 90.0556 9.43549 90.0556 9.57246V10.1751C90.2109 9.85553 90.4437 9.58616 90.7542 9.36701C91.0738 9.13873 91.4207 9.02459 91.7951 9.02459H92.2334C92.3795 9.02459 92.5073 9.08851 92.6169 9.21635C92.7265 9.33505 92.7813 9.48115 92.7813 9.65464C92.7813 9.82813 92.7265 9.9788 92.6169 10.1066C92.5073 10.2345 92.3795 10.2984 92.2334 10.2984H91.7951C91.3568 10.2984 90.9688 10.4856 90.6309 10.8599C90.3022 11.2343 90.1378 11.7183 90.1378 12.3118V15.1196C90.1378 15.2383 90.0648 15.3479 89.9187 15.4483C89.7726 15.5488 89.5991 15.599 89.3982 15.599C89.1973 15.599 89.0284 15.5488 88.8914 15.4483C88.7636 15.3479 88.6997 15.2383 88.6997 15.1196ZM93.2245 13.9006C93.2245 13.1701 93.4984 12.6633 94.0463 12.3803C94.5942 12.0881 95.3886 11.942 96.4295 11.942H97.0322V11.6954C97.0322 11.2937 96.918 10.9467 96.6898 10.6545C96.4706 10.3623 96.1328 10.2162 95.6762 10.2162C95.2836 10.2162 94.9366 10.2847 94.6353 10.4217C94.3431 10.5586 94.1833 10.6271 94.1559 10.6271C94.0007 10.6271 93.8728 10.5541 93.7724 10.408C93.6811 10.2527 93.6354 10.0838 93.6354 9.90118C93.6354 9.66377 93.8546 9.45832 94.2929 9.28483C94.7403 9.11134 95.2105 9.02459 95.7036 9.02459C96.6441 9.02459 97.3381 9.28027 97.7855 9.79161C98.2421 10.2938 98.4703 10.9239 98.4703 11.6817V15.1196C98.4703 15.2475 98.4019 15.3616 98.2649 15.462C98.1371 15.5533 97.9727 15.599 97.7718 15.599C97.5892 15.599 97.434 15.5533 97.3061 15.462C97.1783 15.3616 97.1144 15.2475 97.1144 15.1196V14.6402C96.5026 15.3525 95.8132 15.7086 95.0462 15.7086C94.5166 15.7086 94.0783 15.5533 93.7313 15.2429C93.3934 14.9324 93.2245 14.485 93.2245 13.9006ZM94.6764 13.7226C94.6764 14.0148 94.7585 14.2385 94.9229 14.3937C95.0873 14.5398 95.3018 14.6128 95.5666 14.6128C95.9136 14.6128 96.2423 14.4667 96.5528 14.1745C96.8724 13.8823 97.0322 13.5719 97.0322 13.2432V12.7364H96.6898C96.2789 12.7364 95.941 12.7547 95.6762 12.7912C95.4206 12.8277 95.1877 12.9236 94.9777 13.0788C94.7768 13.234 94.6764 13.4486 94.6764 13.7226ZM99.9355 15.1196V9.57246C99.9355 9.43549 99.9994 9.32592 100.127 9.24374C100.264 9.15243 100.438 9.10678 100.648 9.10678C100.83 9.10678 100.981 9.15243 101.1 9.24374C101.228 9.32592 101.291 9.43549 101.291 9.57246V10.0655C101.438 9.77335 101.67 9.52681 101.99 9.32592C102.319 9.12504 102.698 9.02459 103.127 9.02459C103.775 9.02459 104.332 9.2894 104.798 9.819C105.273 10.3486 105.51 10.9832 105.51 11.7228V15.1196C105.51 15.2657 105.437 15.3844 105.291 15.4757C105.154 15.5579 104.985 15.599 104.784 15.599C104.602 15.599 104.437 15.5579 104.291 15.4757C104.145 15.3844 104.072 15.2657 104.072 15.1196V11.7228C104.072 11.3576 103.935 11.0289 103.661 10.7367C103.387 10.4445 103.063 10.2984 102.689 10.2984C102.342 10.2984 102.036 10.4308 101.771 10.6956C101.506 10.9513 101.374 11.2937 101.374 11.7228V15.1196C101.374 15.2383 101.301 15.3479 101.155 15.4483C101.008 15.5488 100.839 15.599 100.648 15.599C100.447 15.599 100.278 15.5488 100.141 15.4483C100.004 15.3479 99.9355 15.2383 99.9355 15.1196ZM106.944 13.4623V6.60028C106.944 6.47245 107.017 6.36287 107.163 6.27156C107.309 6.18025 107.474 6.1346 107.656 6.1346C107.839 6.1346 108.003 6.18025 108.149 6.27156C108.305 6.36287 108.382 6.47245 108.382 6.60028V9.10678H110.053C110.172 9.10678 110.268 9.16156 110.341 9.27113C110.414 9.37158 110.45 9.49485 110.45 9.64094C110.45 9.78704 110.414 9.91488 110.341 10.0245C110.268 10.1249 110.172 10.1751 110.053 10.1751H108.382V13.4623C108.382 13.791 108.451 14.0239 108.588 14.1608C108.734 14.2978 108.985 14.3663 109.341 14.3663H109.82C110.012 14.3663 110.163 14.4257 110.272 14.5444C110.382 14.6631 110.437 14.8092 110.437 14.9826C110.437 15.1561 110.382 15.3022 110.272 15.4209C110.163 15.5396 110.012 15.599 109.82 15.599H109.341C107.743 15.599 106.944 14.8868 106.944 13.4623ZM111.125 12.9829V11.6817C111.125 10.9604 111.403 10.3395 111.96 9.819C112.517 9.2894 113.189 9.02459 113.974 9.02459C114.723 9.02459 115.362 9.26657 115.891 9.75052C116.43 10.2253 116.699 10.828 116.699 11.5585C116.699 11.8324 116.668 12.0561 116.604 12.2296C116.54 12.394 116.439 12.5127 116.302 12.5857C116.165 12.6496 116.037 12.6907 115.919 12.709C115.8 12.7273 115.645 12.7364 115.453 12.7364H112.563V13.0514C112.563 13.508 112.727 13.8732 113.056 14.1472C113.385 14.412 113.814 14.5444 114.344 14.5444C114.718 14.5444 115.07 14.4576 115.398 14.2841C115.736 14.1106 115.942 14.0239 116.015 14.0239C116.17 14.0239 116.302 14.0969 116.412 14.243C116.521 14.3891 116.576 14.5307 116.576 14.6676C116.576 14.8959 116.357 15.1287 115.919 15.3662C115.48 15.5944 114.942 15.7086 114.303 15.7086C113.371 15.7086 112.609 15.4575 112.015 14.9553C111.422 14.453 111.125 13.7956 111.125 12.9829ZM112.563 11.8461H114.837C115.038 11.8461 115.17 11.8187 115.234 11.7639C115.307 11.7091 115.343 11.5996 115.343 11.4352C115.343 11.07 115.211 10.7595 114.946 10.5038C114.682 10.2482 114.353 10.1203 113.96 10.1203C113.577 10.1203 113.248 10.2436 112.974 10.4901C112.7 10.7275 112.563 11.0334 112.563 11.4078V11.8461ZM120.656 12.6268V8.64109C120.656 7.59101 120.934 6.81943 121.491 6.32635C122.057 5.83327 122.792 5.58673 123.696 5.58673C124.628 5.58673 125.376 5.81957 125.942 6.28526C126.518 6.74182 126.805 7.33534 126.805 8.06583C126.805 8.35802 126.751 8.55891 126.641 8.66848C126.531 8.76892 126.344 8.81914 126.079 8.81914C125.605 8.81914 125.363 8.65935 125.353 8.33976C125.299 7.36273 124.765 6.87422 123.751 6.87422C122.655 6.87422 122.107 7.46317 122.107 8.64109V12.6268C122.107 13.8047 122.664 14.3937 123.778 14.3937C124.107 14.3937 124.381 14.348 124.6 14.2567C124.819 14.1563 124.975 14.0147 125.066 13.8321C125.166 13.6495 125.235 13.4897 125.271 13.3527C125.308 13.2158 125.335 13.0469 125.353 12.846C125.381 12.5264 125.618 12.3666 126.066 12.3666C126.331 12.3666 126.518 12.4214 126.627 12.5309C126.746 12.6314 126.805 12.8277 126.805 13.1199C126.805 13.8778 126.518 14.4941 125.942 14.969C125.367 15.4438 124.614 15.6812 123.683 15.6812C122.779 15.6812 122.048 15.4346 121.491 14.9416C120.934 14.4485 120.656 13.6769 120.656 12.6268ZM127.6 13.9006C127.6 13.1701 127.874 12.6633 128.422 12.3803C128.969 12.0881 129.764 11.942 130.805 11.942H131.407V11.6954C131.407 11.2937 131.293 10.9467 131.065 10.6545C130.846 10.3623 130.508 10.2162 130.051 10.2162C129.659 10.2162 129.312 10.2847 129.011 10.4217C128.718 10.5586 128.559 10.6271 128.531 10.6271C128.376 10.6271 128.248 10.5541 128.148 10.408C128.056 10.2527 128.011 10.0838 128.011 9.90118C128.011 9.66377 128.23 9.45832 128.668 9.28483C129.116 9.11134 129.586 9.02459 130.079 9.02459C131.019 9.02459 131.713 9.28027 132.161 9.79161C132.617 10.2938 132.846 10.9239 132.846 11.6817V15.1196C132.846 15.2475 132.777 15.3616 132.64 15.462C132.512 15.5533 132.348 15.599 132.147 15.599C131.964 15.599 131.809 15.5533 131.681 15.462C131.554 15.3616 131.49 15.2475 131.49 15.1196V14.6402C130.878 15.3525 130.188 15.7086 129.421 15.7086C128.892 15.7086 128.454 15.5533 128.107 15.2429C127.769 14.9324 127.6 14.485 127.6 13.9006ZM129.052 13.7226C129.052 14.0148 129.134 14.2385 129.298 14.3937C129.462 14.5398 129.677 14.6128 129.942 14.6128C130.289 14.6128 130.618 14.4667 130.928 14.1745C131.248 13.8823 131.407 13.5719 131.407 13.2432V12.7364H131.065C130.654 12.7364 130.316 12.7547 130.051 12.7912C129.796 12.8277 129.563 12.9236 129.353 13.0788C129.152 13.234 129.052 13.4486 129.052 13.7226ZM133.927 14.6128C133.927 14.4759 133.973 14.3343 134.064 14.1882C134.165 14.0421 134.283 13.9691 134.42 13.9691C134.502 13.9691 134.617 14.0239 134.763 14.1335C134.909 14.2339 135.105 14.3389 135.352 14.4485C135.598 14.5489 135.895 14.5991 136.242 14.5991C137.018 14.5991 137.406 14.3526 137.406 13.8595C137.406 13.5947 137.292 13.3893 137.064 13.2432C136.835 13.0879 136.557 12.9692 136.228 12.8871C135.909 12.7957 135.589 12.6953 135.27 12.5857C134.95 12.4762 134.676 12.289 134.448 12.0242C134.219 11.7594 134.105 11.4169 134.105 10.9969C134.105 10.4582 134.297 9.99706 134.681 9.61355C135.064 9.22091 135.653 9.02459 136.447 9.02459C136.968 9.02459 137.438 9.10677 137.858 9.27113C138.287 9.42636 138.502 9.61355 138.502 9.8327C138.502 9.96053 138.447 10.1112 138.338 10.2847C138.237 10.449 138.109 10.5312 137.954 10.5312C137.899 10.5312 137.712 10.4673 137.392 10.3395C137.073 10.2025 136.767 10.134 136.475 10.134C136.11 10.134 135.831 10.2162 135.639 10.3806C135.457 10.5449 135.365 10.7275 135.365 10.9284C135.365 11.1476 135.48 11.3211 135.708 11.4489C135.936 11.5767 136.215 11.6817 136.543 11.7639C136.872 11.8461 137.196 11.9466 137.516 12.0653C137.844 12.184 138.123 12.3894 138.351 12.6816C138.58 12.9738 138.694 13.3482 138.694 13.8047C138.694 14.3983 138.484 14.8639 138.064 15.2018C137.644 15.5396 137.05 15.7086 136.283 15.7086C135.635 15.7086 135.078 15.5944 134.612 15.3662C134.156 15.1379 133.927 14.8868 133.927 14.6128ZM139.602 12.9829V11.6817C139.602 10.9604 139.88 10.3395 140.437 9.819C140.994 9.2894 141.665 9.02459 142.451 9.02459C143.199 9.02459 143.839 9.26657 144.368 9.75052C144.907 10.2253 145.176 10.828 145.176 11.5585C145.176 11.8324 145.144 12.0561 145.081 12.2296C145.017 12.394 144.916 12.5127 144.779 12.5857C144.642 12.6496 144.514 12.6907 144.396 12.709C144.277 12.7273 144.122 12.7364 143.93 12.7364H141.04V13.0514C141.04 13.508 141.204 13.8732 141.533 14.1472C141.862 14.412 142.291 14.5444 142.821 14.5444C143.195 14.5444 143.546 14.4576 143.875 14.2841C144.213 14.1106 144.419 14.0239 144.492 14.0239C144.647 14.0239 144.779 14.0969 144.889 14.243C144.998 14.3891 145.053 14.5307 145.053 14.6676C145.053 14.8959 144.834 15.1287 144.396 15.3662C143.957 15.5944 143.419 15.7086 142.779 15.7086C141.848 15.7086 141.086 15.4575 140.492 14.9553C139.899 14.453 139.602 13.7956 139.602 12.9829ZM141.04 11.8461H143.314C143.515 11.8461 143.647 11.8187 143.711 11.7639C143.784 11.7091 143.82 11.5996 143.82 11.4352C143.82 11.07 143.688 10.7595 143.423 10.5038C143.158 10.2482 142.83 10.1203 142.437 10.1203C142.054 10.1203 141.725 10.2436 141.451 10.4901C141.177 10.7275 141.04 11.0334 141.04 11.4078V11.8461ZM146.212 6.72355C146.212 6.51354 146.295 6.33548 146.459 6.18938C146.623 6.04328 146.82 5.97024 147.048 5.97024C147.276 5.97024 147.472 6.04328 147.637 6.18938C147.801 6.33548 147.883 6.51354 147.883 6.72355C147.883 6.92444 147.801 7.10249 147.637 7.25772C147.472 7.40382 147.276 7.47687 147.048 7.47687C146.82 7.47687 146.623 7.40382 146.459 7.25772C146.295 7.10249 146.212 6.92444 146.212 6.72355ZM146.336 15.1196V9.57246C146.336 9.43549 146.4 9.32592 146.527 9.24374C146.664 9.15243 146.838 9.10678 147.048 9.10678C147.258 9.10678 147.431 9.15243 147.568 9.24374C147.705 9.32592 147.774 9.43549 147.774 9.57246V15.1196C147.774 15.2383 147.701 15.3479 147.555 15.4483C147.418 15.5488 147.249 15.599 147.048 15.599C146.847 15.599 146.678 15.5488 146.541 15.4483C146.404 15.3479 146.336 15.2383 146.336 15.1196ZM149.278 15.1196V9.57246C149.278 9.43549 149.342 9.32592 149.47 9.24374C149.607 9.15243 149.776 9.10678 149.977 9.10678C150.159 9.10678 150.315 9.15243 150.442 9.24374C150.57 9.32592 150.634 9.43549 150.634 9.57246V10.1751C150.789 9.85553 151.022 9.58616 151.333 9.36701C151.652 9.13873 151.999 9.02459 152.374 9.02459H152.812C152.958 9.02459 153.086 9.08851 153.195 9.21635C153.305 9.33505 153.36 9.48115 153.36 9.65464C153.36 9.82813 153.305 9.9788 153.195 10.1066C153.086 10.2345 152.958 10.2984 152.812 10.2984H152.374C151.935 10.2984 151.547 10.4856 151.209 10.8599C150.881 11.2343 150.716 11.7183 150.716 12.3118V15.1196C150.716 15.2383 150.643 15.3479 150.497 15.4483C150.351 15.5488 150.178 15.599 149.977 15.599C149.776 15.599 149.607 15.5488 149.47 15.4483C149.342 15.3479 149.278 15.2383 149.278 15.1196ZM153.793 12.9829V11.7228C153.793 11.0015 154.072 10.3714 154.629 9.8327C155.186 9.29396 155.852 9.02459 156.628 9.02459C157.386 9.02459 158.048 9.29396 158.614 9.8327C159.18 10.3623 159.464 10.9924 159.464 11.7228V12.9829C159.464 13.6952 159.176 14.3298 158.601 14.8868C158.035 15.4346 157.377 15.7086 156.628 15.7086C155.87 15.7086 155.208 15.4346 154.642 14.8868C154.076 14.3389 153.793 13.7043 153.793 12.9829ZM155.231 12.9829C155.231 13.3573 155.368 13.6952 155.642 13.9965C155.916 14.2887 156.245 14.4348 156.628 14.4348C157.003 14.4348 157.327 14.2887 157.601 13.9965C157.884 13.6952 158.025 13.3573 158.025 12.9829V11.7228C158.025 11.3576 157.884 11.0289 157.601 10.7367C157.327 10.4445 157.003 10.2984 156.628 10.2984C156.245 10.2984 155.916 10.4445 155.642 10.7367C155.368 11.0289 155.231 11.3576 155.231 11.7228V12.9829ZM51.1084 30.4842V29.2241C51.1084 28.4845 51.3458 27.8499 51.8206 27.3203C52.3046 26.7907 52.8844 26.5259 53.5601 26.5259C53.9619 26.5259 54.318 26.6263 54.6284 26.8272C54.9389 27.0281 55.1763 27.2747 55.3407 27.5669V23.2113C55.3407 23.0743 55.4091 22.9648 55.5461 22.8826C55.6831 22.7913 55.8566 22.7456 56.0666 22.7456C56.2766 22.7456 56.4455 22.7913 56.5734 22.8826C56.7103 22.9648 56.7788 23.0743 56.7788 23.2113V32.6209C56.7788 32.7396 56.7103 32.8492 56.5734 32.9496C56.4364 33.0501 56.2675 33.1003 56.0666 33.1003C55.8931 33.1003 55.7379 33.0501 55.6009 32.9496C55.4731 32.8492 55.4091 32.7396 55.4091 32.6209V32.1415C55.263 32.4337 55.0119 32.6848 54.6558 32.8949C54.3088 33.1049 53.9299 33.2099 53.519 33.2099C52.8798 33.2099 52.3183 32.9359 51.8343 32.3881C51.3504 31.8311 51.1084 31.1965 51.1084 30.4842ZM52.5465 30.4842C52.5465 30.8586 52.6835 31.1965 52.9574 31.4978C53.2314 31.79 53.5555 31.9361 53.9299 31.9361C54.286 31.9361 54.6102 31.7991 54.9024 31.5252C55.1946 31.2421 55.3407 31.0002 55.3407 30.7993V29.2241C55.3407 28.8041 55.1991 28.4617 54.9161 28.1969C54.633 27.9321 54.3088 27.7997 53.9436 27.7997C53.5692 27.7997 53.2405 27.9458 52.9574 28.238C52.6835 28.5302 52.5465 28.8589 52.5465 29.2241V30.4842ZM57.886 31.4019C57.886 30.6714 58.1599 30.1647 58.7078 29.8816C59.2556 29.5894 60.05 29.4433 61.091 29.4433H61.6936V29.1968C61.6936 28.795 61.5795 28.448 61.3512 28.1558C61.1321 27.8636 60.7942 27.7175 60.3377 27.7175C59.945 27.7175 59.598 27.786 59.2967 27.923C59.0045 28.0599 58.8447 28.1284 58.8173 28.1284C58.6621 28.1284 58.5343 28.0554 58.4338 27.9093C58.3425 27.754 58.2969 27.5851 58.2969 27.4025C58.2969 27.1651 58.516 26.9596 58.9543 26.7861C59.4017 26.6126 59.872 26.5259 60.3651 26.5259C61.3056 26.5259 61.9995 26.7816 62.4469 27.2929C62.9035 27.7951 63.1318 28.4252 63.1318 29.1831V32.6209C63.1318 32.7488 63.0633 32.8629 62.9263 32.9633C62.7985 33.0547 62.6341 33.1003 62.4333 33.1003C62.2506 33.1003 62.0954 33.0547 61.9676 32.9633C61.8397 32.8629 61.7758 32.7488 61.7758 32.6209V32.1415C61.164 32.8538 60.4746 33.2099 59.7076 33.2099C59.178 33.2099 58.7397 33.0547 58.3927 32.7442C58.0549 32.4337 57.886 31.9863 57.886 31.4019ZM59.3378 31.2239C59.3378 31.5161 59.42 31.7398 59.5843 31.895C59.7487 32.0411 59.9633 32.1141 60.2281 32.1141C60.5751 32.1141 60.9038 31.968 61.2142 31.6759C61.5338 31.3837 61.6936 31.0732 61.6936 30.7445V30.2377H61.3512C60.9403 30.2377 60.6025 30.256 60.3377 30.2925C60.082 30.329 59.8491 30.4249 59.6391 30.5801C59.4382 30.7353 59.3378 30.9499 59.3378 31.2239ZM66.7774 23.7455C66.7774 23.572 66.8185 23.4213 66.9006 23.2935C66.9828 23.1565 67.1015 23.088 67.2568 23.088H72.9409C73.0961 23.088 73.2148 23.152 73.297 23.2798C73.3792 23.4076 73.4203 23.5583 73.4203 23.7318C73.4203 23.9235 73.3746 24.0879 73.2833 24.2249C73.2011 24.3527 73.087 24.4166 72.9409 24.4166H70.8316V32.6209C70.8316 32.767 70.7585 32.8857 70.6124 32.977C70.4663 33.0592 70.2974 33.1003 70.1057 33.1003C69.9048 33.1003 69.7313 33.0592 69.5852 32.977C69.4482 32.8857 69.3797 32.767 69.3797 32.6209V24.4166H67.2568C67.1107 24.4166 66.992 24.3527 66.9006 24.2249C66.8185 24.0879 66.7774 23.9281 66.7774 23.7455ZM72.8572 30.4842V29.1831C72.8572 28.4617 73.1357 27.8408 73.6927 27.3203C74.2497 26.7907 74.9208 26.5259 75.7061 26.5259C76.4548 26.5259 77.094 26.7679 77.6236 27.2518C78.1624 27.7266 78.4317 28.3293 78.4317 29.0598C78.4317 29.3337 78.3998 29.5574 78.3358 29.7309C78.2719 29.8953 78.1715 30.014 78.0345 30.087C77.8976 30.151 77.7697 30.192 77.651 30.2103C77.5323 30.2286 77.3771 30.2377 77.1853 30.2377H74.2953V30.5527C74.2953 31.0093 74.4597 31.3745 74.7884 31.6485C75.1171 31.9133 75.5463 32.0457 76.0759 32.0457C76.4503 32.0457 76.8018 31.9589 77.1305 31.7854C77.4684 31.6119 77.6738 31.5252 77.7469 31.5252C77.9021 31.5252 78.0345 31.5982 78.1441 31.7443C78.2537 31.8904 78.3085 32.032 78.3085 32.1689C78.3085 32.3972 78.0893 32.6301 77.651 32.8675C77.2127 33.0957 76.674 33.2099 76.0348 33.2099C75.1034 33.2099 74.341 32.9588 73.7475 32.4566C73.1539 31.9544 72.8572 31.2969 72.8572 30.4842ZM74.2953 29.3474H76.569C76.7699 29.3474 76.9023 29.32 76.9662 29.2652C77.0392 29.2105 77.0758 29.1009 77.0758 28.9365C77.0758 28.5713 76.9434 28.2608 76.6786 28.0051C76.4137 27.7495 76.085 27.6216 75.6924 27.6216C75.3089 27.6216 74.9802 27.7449 74.7062 27.9914C74.4323 28.2289 74.2953 28.5347 74.2953 28.9091V29.3474ZM79.591 32.6209V27.0738C79.591 26.9368 79.6549 26.8272 79.7828 26.745C79.9197 26.6537 80.0886 26.6081 80.2895 26.6081C80.4722 26.6081 80.6274 26.6537 80.7552 26.745C80.8831 26.8272 80.947 26.9368 80.947 27.0738V27.6764C81.1022 27.3568 81.335 27.0875 81.6455 26.8683C81.9651 26.64 82.3121 26.5259 82.6864 26.5259H83.1247C83.2708 26.5259 83.3987 26.5898 83.5082 26.7177C83.6178 26.8364 83.6726 26.9825 83.6726 27.156C83.6726 27.3294 83.6178 27.4801 83.5082 27.6079C83.3987 27.7358 83.2708 27.7997 83.1247 27.7997H82.6864C82.2481 27.7997 81.8601 27.9869 81.5222 28.3613C81.1935 28.7356 81.0292 29.2196 81.0292 29.8131V32.6209C81.0292 32.7396 80.9561 32.8492 80.81 32.9496C80.6639 33.0501 80.4904 33.1003 80.2895 33.1003C80.0886 33.1003 79.9197 33.0501 79.7828 32.9496C79.6549 32.8492 79.591 32.7396 79.591 32.6209ZM84.1197 30.4842V29.1831C84.1197 28.4617 84.3982 27.8408 84.9552 27.3203C85.5121 26.7907 86.1833 26.5259 86.9686 26.5259C87.7173 26.5259 88.3565 26.7679 88.8861 27.2518C89.4248 27.7266 89.6942 28.3293 89.6942 29.0598C89.6942 29.3337 89.6622 29.5574 89.5983 29.7309C89.5344 29.8953 89.434 30.014 89.297 30.087C89.16 30.151 89.0322 30.192 88.9135 30.2103C88.7948 30.2286 88.6396 30.2377 88.4478 30.2377H85.5578V30.5527C85.5578 31.0093 85.7222 31.3745 86.0509 31.6485C86.3796 31.9133 86.8088 32.0457 87.3384 32.0457C87.7127 32.0457 88.0643 31.9589 88.393 31.7854C88.7309 31.6119 88.9363 31.5252 89.0094 31.5252C89.1646 31.5252 89.297 31.5982 89.4066 31.7443C89.5161 31.8904 89.5709 32.032 89.5709 32.1689C89.5709 32.3972 89.3518 32.6301 88.9135 32.8675C88.4752 33.0957 87.9365 33.2099 87.2973 33.2099C86.3659 33.2099 85.6035 32.9588 85.0099 32.4566C84.4164 31.9544 84.1197 31.2969 84.1197 30.4842ZM85.5578 29.3474H87.8315C88.0323 29.3474 88.1647 29.32 88.2287 29.2652C88.3017 29.2105 88.3382 29.1009 88.3382 28.9365C88.3382 28.5713 88.2058 28.2608 87.941 28.0051C87.6762 27.7495 87.3475 27.6216 86.9549 27.6216C86.5714 27.6216 86.2426 27.7449 85.9687 27.9914C85.6948 28.2289 85.5578 28.5347 85.5578 28.9091V29.3474ZM90.4148 32.5798C90.4148 32.4246 90.497 32.2329 90.6613 32.0046L93.5924 27.7997H90.9901C90.8714 27.7997 90.7663 27.7403 90.675 27.6216C90.5837 27.5029 90.5381 27.3614 90.5381 27.197C90.5381 27.0327 90.5792 26.8957 90.6613 26.7861C90.7435 26.6674 90.8531 26.6081 90.9901 26.6081H94.9484C95.0854 26.6081 95.1995 26.6537 95.2908 26.745C95.3913 26.8272 95.4415 26.9505 95.4415 27.1149C95.4415 27.3066 95.3684 27.5029 95.2223 27.7038L92.2775 31.9087H95.1812C95.3091 31.9087 95.4186 31.968 95.51 32.0868C95.6013 32.1963 95.6469 32.3379 95.6469 32.5114C95.6469 32.6757 95.6013 32.8172 95.51 32.9359C95.4278 33.0455 95.3182 33.1003 95.1812 33.1003H90.9216C90.7572 33.1003 90.6294 33.0501 90.5381 32.9496C90.4559 32.8401 90.4148 32.7168 90.4148 32.5798ZM96.2606 31.4019C96.2606 30.6714 96.5345 30.1647 97.0824 29.8816C97.6303 29.5894 98.4247 29.4433 99.4656 29.4433H100.068V29.1968C100.068 28.795 99.9542 28.448 99.7259 28.1558C99.5067 27.8636 99.1689 27.7175 98.7123 27.7175C98.3197 27.7175 97.9727 27.786 97.6714 27.923C97.3792 28.0599 97.2194 28.1284 97.192 28.1284C97.0368 28.1284 96.9089 28.0554 96.8085 27.9093C96.7172 27.754 96.6715 27.5851 96.6715 27.4025C96.6715 27.1651 96.8907 26.9596 97.329 26.7861C97.7764 26.6126 98.2466 26.5259 98.7397 26.5259C99.6802 26.5259 100.374 26.7816 100.822 27.2929C101.278 27.7951 101.506 28.4252 101.506 29.1831V32.6209C101.506 32.7488 101.438 32.8629 101.301 32.9633C101.173 33.0547 101.009 33.1003 100.808 33.1003C100.625 33.1003 100.47 33.0547 100.342 32.9633C100.214 32.8629 100.15 32.7488 100.15 32.6209V32.1415C99.5387 32.8538 98.8493 33.2099 98.0823 33.2099C97.5527 33.2099 97.1144 33.0547 96.7674 32.7442C96.4295 32.4337 96.2606 31.9863 96.2606 31.4019ZM97.7125 31.2239C97.7125 31.5161 97.7946 31.7398 97.959 31.895C98.1234 32.0411 98.3379 32.1141 98.6027 32.1141C98.9497 32.1141 99.2784 31.968 99.5889 31.6759C99.9085 31.3837 100.068 31.0732 100.068 30.7445V30.2377H99.7259C99.315 30.2377 98.9771 30.256 98.7123 30.2925C98.4566 30.329 98.2238 30.4249 98.0138 30.5801C97.8129 30.7353 97.7125 30.9499 97.7125 31.2239Z" fill="#F7ECEC"/>
</svg>
