<svg width="36" height="40" viewBox="0 0 36 40" fill="none" xmlns="http://www.w3.org/2000/svg">
<path d="M6 40H32C33.0609 40 34.0783 39.5786 34.8284 38.8284C35.5786 38.0783 36 37.0609 36 36V4C36 2.93913 35.5786 1.92172 34.8284 1.17157C34.0783 0.421427 33.0609 0 32 0H4C2.93913 0 1.92172 0.421427 1.17157 1.17157C0.421427 1.92172 0 2.93913 0 4V36C0 37.0609 0.421427 38.0783 1.17157 38.8284C1.92172 39.5786 2.93913 40 4 40H6ZM18 5.998C21.294 5.998 24 8.7 24 11.998C24 15.294 21.294 18 18 18C14.706 18 12 15.294 12 11.998C12 8.7 14.706 5.998 18 5.998V5.998ZM6 30.5C6 26.062 11.41 21.5 18 21.5C24.59 21.5 30 26.062 30 30.5V32H6V30.5Z" fill="#FFD7C2"/>
</svg>
