<svg width="30" height="30" viewBox="0 0 30 30" fill="none" xmlns="http://www.w3.org/2000/svg">
<path d="M4 26L5.5538 20.3506C4.59499 18.6969 4.09118 16.8223 4.0921 14.9001C4.09487 8.89042 9.00862 4 15.0461 4C17.9759 4.00092 20.7261 5.13667 22.7948 7.19733C24.8625 9.258 26.0009 11.997 26 14.9102C25.9972 20.9208 21.0835 25.8112 15.0461 25.8112C13.2132 25.8102 11.407 25.3528 9.80717 24.4838L4 26ZM10.0761 22.5103C11.6198 23.4223 13.0934 23.9687 15.0424 23.9696C20.0602 23.9696 24.1478 19.9051 24.1505 14.9083C24.1524 9.9015 20.0841 5.8425 15.0497 5.84067C10.0282 5.84067 5.9434 9.90517 5.94156 14.901C5.94063 16.9406 6.54115 18.4678 7.54969 20.0655L6.62957 23.4095L10.0761 22.5103ZM20.564 17.5016C20.4959 17.3879 20.3135 17.3201 20.039 17.1835C19.7655 17.0469 18.4198 16.3878 18.1684 16.2971C17.9179 16.2063 17.7355 16.1605 17.5522 16.4337C17.3698 16.7059 16.8448 17.3201 16.6855 17.5016C16.5262 17.6831 16.3659 17.706 16.0924 17.5694C15.8188 17.4328 14.9364 17.1459 13.8911 16.2173C13.0778 15.495 12.5279 14.6031 12.3686 14.3299C12.2092 14.0577 12.352 13.9101 12.4883 13.7744C12.6117 13.6525 12.7619 13.4563 12.8991 13.2968C13.0382 13.1392 13.0833 13.0255 13.1754 12.8431C13.2666 12.6616 13.2215 12.5021 13.1524 12.3655C13.0833 12.2298 12.5362 10.8888 12.3087 10.3433C12.0858 9.81258 11.8602 9.88408 11.6925 9.87583L11.1675 9.86667C10.9852 9.86667 10.6886 9.9345 10.4381 10.2077C10.1876 10.4808 9.4802 11.139 9.4802 12.4801C9.4802 13.8212 10.4611 15.1164 10.5974 15.2979C10.7347 15.4794 12.527 18.2313 15.2726 19.411C15.9256 19.6915 16.4359 19.8593 16.8329 19.9848C17.4887 20.192 18.0855 20.1627 18.5571 20.093C19.083 20.0151 20.1763 19.4339 20.4047 18.7978C20.6331 18.1607 20.6331 17.6153 20.564 17.5016Z" fill="#CC9F87"/>
<rect x="1" y="1" width="28" height="28" stroke="#CC9F87" stroke-width="2"/>
</svg>
